<svg xmlns="http://www.w3.org/2000/svg" fill="none" viewBox="0 0 52 36" height="36" width="52">
<path fill="white" d="M28.8344 8.90403C29.753 7.73063 30.941 6.79625 32.2975 6.18021C33.6604 5.47457 36.2067 4.48176 37.4355 4.00265C37.7642 3.87446 37.9987 3.78304 38.0909 3.74374C39.4017 3.18521 48.8241 0 48.8241 0L28.5148 4.38321C28.5148 4.38321 28.3773 4.43582 28.3773 4.40749C28.0762 3.34026 27.1028 2.60322 25.9944 2.60322C24.8859 2.60322 23.9125 3.34026 23.6114 4.40749C23.6034 4.43582 23.4739 4.38321 23.4739 4.38321L3.16051 0C3.16051 0 12.5789 3.18521 13.8897 3.73969C13.974 3.77484 14.1772 3.85355 14.4626 3.96412C15.6564 4.42653 18.289 5.44622 19.6831 6.16806C21.0413 6.78701 22.2295 7.72574 23.1462 8.90403C24.1877 10.2895 24.5205 11.3798 24.9859 12.9047C25.0141 12.9969 25.0427 13.0906 25.0719 13.1861C25.3754 14.1453 25.9337 17.0715 25.9782 17.3467C25.9897 17.2943 26.0193 17.1467 26.0616 16.9351C26.2419 16.0349 26.6541 13.9768 26.8965 13.1739C26.9314 13.0629 26.9653 12.9543 26.9985 12.8478C27.4667 11.3468 27.8031 10.2683 28.8344 8.90403ZM24.6795 5.07934C24.6795 4.36183 25.2609 3.78016 25.9782 3.78016C26.3226 3.78016 26.6529 3.91704 26.8965 4.16069C27.14 4.40433 27.2768 4.73478 27.2768 5.07934C27.2768 5.79686 26.6954 6.37852 25.9782 6.37852C25.2609 6.37852 24.6795 5.79686 24.6795 5.07934ZM10.872 23.8696H0.491438V25.3955H7.71644L0 35.8628H10.872V34.3369H3.17279L10.872 23.8696ZM14.2535 23.8868H12.5292V35.8628H14.2535V23.8868ZM27.0668 23.8868H25.4287V33.1796L17.307 23.8868H15.9103V35.8628H17.5312V26.6472L25.5839 35.8628H27.0668V23.8868ZM39.1661 23.8868H37.4504L33.8551 32.2966L30.234 23.8868H28.501L33.6913 35.9143H34.0793L39.1661 23.8868ZM50.142 25.4727C48.9034 24.3011 47.3529 23.7153 45.4906 23.7153C43.6283 23.7153 42.0879 24.3011 40.8694 25.4727C39.6508 26.6443 39.0415 28.1245 39.0415 29.9134C39.0415 31.6565 39.6465 33.1067 40.8564 34.264C42.0663 35.4213 43.5794 36 45.3958 36C47.2983 36 48.8746 35.4213 50.1248 34.264C51.3749 33.1067 52 31.6451 52 29.8791C52 28.1131 51.3807 26.6443 50.142 25.4727ZM42.1583 26.63C43.0463 25.7727 44.1801 25.3441 45.5596 25.3441C46.8701 25.3441 47.9751 25.777 48.8746 26.6429C49.7742 27.5087 50.2239 28.576 50.2239 29.8448C50.2239 31.1479 49.7742 32.2366 48.8746 33.111C47.9751 33.9854 46.8528 34.4226 45.5078 34.4226C44.1686 34.4226 43.0535 33.994 42.1626 33.1367C41.2717 32.2794 40.8262 31.205 40.8262 29.9134C40.8262 28.5817 41.2703 27.4873 42.1583 26.63Z" clip-rule="evenodd" fill-rule="evenodd"></path>
</svg>
