<svg width="38" height="24" viewBox="0 0 38 24" fill="none" xmlns="http://www.w3.org/2000/svg">
<g clip-path="url(#clip0_2_22)">
<path opacity="0.07" d="M35 0H3C1.3 0 0 1.3 0 3V21C0 22.7 1.4 24 3 24H35C36.7 24 38 22.7 38 21V3C38 1.3 36.6 0 35 0Z" fill="black"/>
<path d="M35 1C36.1 1 37 1.9 37 3V21C37 22.1 36.1 23 35 23H3C1.9 23 1 22.1 1 21V3C1 1.9 1.9 1 3 1H35Z" fill="#006FCF"/>
<path d="M22.012 19.936V11.515L37 11.528V13.854L35.268 15.706L37 17.573V19.948H34.234L32.764 18.326L31.304 19.954L22.012 19.934V19.936Z" fill="white"/>
<path d="M23.013 19.012V12.442H28.585V13.955H24.817V14.983H28.495V16.471H24.817V17.481H28.585V19.012H23.013Z" fill="#006FCF"/>
<path d="M28.557 19.012L31.64 15.723L28.557 12.441H30.943L32.827 14.524L34.717 12.442H37V12.493L33.983 15.723L37 18.92V19.013H34.693L32.776 16.91L30.878 19.014H28.557V19.012Z" fill="#006FCF"/>
<path d="M22.71 4.04H26.324L27.593 6.921V4.04H32.053L32.823 6.199L33.594 4.04H37V12.461H19L22.71 4.04Z" fill="white"/>
<path d="M23.395 4.955L20.479 11.521H22.479L23.029 10.206H26.009L26.559 11.521H28.609L25.705 4.955H23.395ZM23.645 8.732L24.52 6.642L25.393 8.732H23.645Z" fill="#006FCF"/>
<path d="M28.581 11.52V4.953L31.392 4.963L32.84 9L34.296 4.954H37V11.519L35.26 11.535V7.025L33.616 11.519H32.026L30.35 7.01V11.52H28.582H28.581Z" fill="#006FCF"/>
</g>
<defs>
<clipPath id="clip0_2_22">
<rect width="38" height="24" fill="white"/>
</clipPath>
</defs>
</svg>
