<svg width="16" height="16" viewBox="0 0 16 16" fill="none" xmlns="http://www.w3.org/2000/svg">
<path fill-rule="evenodd" clip-rule="evenodd" d="M11.23 1.49199C10.39 1.45499 10.134 1.44599 8 1.44599C5.856 1.44599 5.61 1.45599 4.762 1.50099C3.986 1.52799 3.567 1.66499 3.275 1.77399C2.93009 1.9002 2.61828 2.10295 2.363 2.36699C2.09594 2.62546 1.89022 2.94052 1.761 3.28899C1.651 3.57099 1.523 3.99099 1.487 4.77499C1.441 5.61499 1.441 5.86999 1.441 8.00499C1.441 10.139 1.451 10.395 1.487 11.234C1.491 11.744 1.584 12.25 1.761 12.729C1.906 13.094 2.08 13.368 2.363 13.642C2.645 13.924 2.901 14.098 3.283 14.244C3.757 14.42 4.257 14.512 4.762 14.517C5.61 14.563 5.865 14.563 8 14.563C10.134 14.563 10.39 14.553 11.23 14.517C12.014 14.481 12.433 14.353 12.716 14.244C13.09 14.098 13.364 13.915 13.637 13.642C13.92 13.359 14.084 13.094 14.239 12.72C14.416 12.244 14.509 11.741 14.513 11.234C14.55 10.394 14.559 10.139 14.559 8.00399C14.559 5.86999 14.549 5.61399 14.504 4.77499C14.477 3.99099 14.34 3.57099 14.23 3.27999C14.1039 2.93473 13.9012 2.62256 13.637 2.36699C13.3767 2.10314 13.063 1.89789 12.717 1.76499C12.433 1.65499 12.015 1.52799 11.23 1.49199ZM4.697 0.0499925C5.554 0.0139925 5.828 0.0049927 7.999 0.0049927C9.099 -0.0090073 10.201 0.00599253 11.301 0.0499925C11.965 0.0639925 12.622 0.189993 13.244 0.423993C13.776 0.626353 14.2583 0.9408 14.658 1.34599C15.068 1.74299 15.386 2.22599 15.588 2.75999C15.818 3.38199 15.942 4.03899 15.953 4.70199C16 5.55999 16 5.82399 16 8.00499C16 10.175 15.99 10.449 15.954 11.297C15.918 12.155 15.781 12.739 15.58 13.24C15.38 13.77 15.106 14.216 14.66 14.663C14.2614 15.0701 13.7784 15.3848 13.245 15.585C12.735 15.776 12.15 15.922 11.302 15.959C10.445 15.995 10.18 16.004 8 16.004C5.829 16.004 5.555 15.995 4.698 15.949C3.849 15.922 3.266 15.785 2.755 15.585C2.22551 15.3777 1.74423 15.0639 1.341 14.663C0.935632 14.2583 0.618917 13.7737 0.411 13.24C0.228 12.73 0.082 12.155 0.046 11.297C0.009 10.45 0 10.167 0 8.00399C0 5.84299 6.70552e-08 5.56899 0.0550001 4.70199C0.0820001 3.85399 0.219 3.26999 0.42 2.75999C0.633486 2.2342 0.945788 1.7542 1.34 1.34599C1.74328 0.942706 2.22483 0.626213 2.755 0.415992C3.265 0.232992 3.848 0.0859925 4.697 0.0499925ZM5.124 4.85599C5.50364 4.46797 5.95646 4.15909 6.45627 3.94725C6.95608 3.7354 7.49295 3.6248 8.03579 3.62183C8.57863 3.61887 9.11667 3.7236 9.61877 3.92997C10.1209 4.13634 10.577 4.44024 10.9609 4.8241C11.3447 5.20795 11.6487 5.66413 11.855 6.16622C12.0614 6.66832 12.1661 7.20636 12.1632 7.7492C12.1602 8.29204 12.0496 8.82891 11.8377 9.32872C11.6259 9.82853 11.317 10.2814 10.929 10.661C10.1564 11.4169 9.11672 11.8376 8.03579 11.8317C6.95486 11.8258 5.91989 11.3938 5.15555 10.6294C4.39121 9.8651 3.95919 8.83013 3.95328 7.7492C3.94738 6.66827 4.36806 5.62864 5.124 4.85599ZM7.006 10.227C7.65976 10.4978 8.39431 10.4978 9.04806 10.227C9.70181 9.95616 10.2212 9.43675 10.492 8.78299C10.7628 8.12923 10.7628 7.39468 10.492 6.74093C10.2212 6.08718 9.70176 5.56778 9.048 5.29699C8.39424 5.02621 7.65969 5.02622 7.00594 5.29702C6.35219 5.56782 5.83279 6.08723 5.562 6.74099C5.29121 7.39475 5.29122 8.1293 5.56203 8.78305C5.83283 9.43681 6.35224 9.95621 7.006 10.227ZM12.928 4.28499C12.839 4.37396 12.7334 4.44454 12.6172 4.49269C12.5009 4.54084 12.3763 4.56562 12.2505 4.56562C12.1247 4.56562 12.0001 4.54084 11.8838 4.49269C11.7676 4.44454 11.662 4.37396 11.573 4.28499C11.484 4.19602 11.4135 4.0904 11.3653 3.97415C11.3172 3.85791 11.2924 3.73332 11.2924 3.60749C11.2924 3.48167 11.3172 3.35708 11.3653 3.24083C11.4135 3.12459 11.484 3.01896 11.573 2.92999C11.7527 2.75031 11.9964 2.64936 12.2505 2.64936C12.5046 2.64936 12.7483 2.75031 12.928 2.92999C13.1077 3.10968 13.2086 3.35338 13.2086 3.60749C13.2086 3.8616 13.1077 4.10531 12.928 4.28499Z" fill="black"/>
</svg>
