<svg width="16" height="17" viewBox="0 0 16 17" fill="none" xmlns="http://www.w3.org/2000/svg">
<path d="M8 0.0100001C10.124 0.0200001 12.16 0.865 13.666 2.363C14.9046 3.61691 15.6997 5.24115 15.9302 6.98853C16.1607 8.73592 15.8141 10.5108 14.943 12.043C14.243 13.2641 13.2314 14.2775 12.0116 14.9797C10.7918 15.6819 9.40748 16.0478 8 16.04C7.23066 16.0454 6.46441 15.9421 5.724 15.733C6.127 15.08 6.396 14.493 6.54 14.004L7.107 11.804C7.241 12.074 7.5 12.304 7.875 12.506C8.259 12.698 8.643 12.803 9.065 12.803C9.901 12.803 10.65 12.563 11.313 12.083C11.9943 11.5781 12.5256 10.8975 12.85 10.114C13.22 9.224 13.404 8.266 13.387 7.301C13.387 6.052 12.907 4.986 11.957 4.074C11.4697 3.61495 10.8962 3.25714 10.2697 3.02129C9.64313 2.78544 8.97603 2.67623 8.307 2.7C7.414 2.7 6.578 2.854 5.829 3.161C4.89967 3.51431 4.09609 4.13546 3.52002 4.94579C2.94396 5.75612 2.62133 6.71918 2.593 7.713C2.593 8.433 2.727 9.068 3.006 9.615C3.275 10.153 3.678 10.537 4.226 10.767C4.322 10.806 4.408 10.806 4.476 10.767C4.542 10.739 4.59 10.671 4.619 10.575L4.792 9.922C4.84 9.778 4.812 9.634 4.687 9.49C4.31238 9.05676 4.11648 8.4973 4.139 7.925C4.13054 7.40583 4.22849 6.89042 4.4268 6.41054C4.62512 5.93066 4.91961 5.49648 5.29211 5.13475C5.66462 4.77301 6.10726 4.49139 6.59275 4.30724C7.07824 4.12309 7.5963 4.04031 8.115 4.064C9.162 4.064 9.978 4.352 10.555 4.919C11.14 5.495 11.438 6.234 11.438 7.147C11.438 7.915 11.332 8.626 11.121 9.269C10.9513 9.85131 10.6452 10.3847 10.228 10.825C9.844 11.209 9.392 11.401 8.883 11.401C8.47 11.401 8.134 11.257 7.865 10.95C7.606 10.643 7.52 10.278 7.615 9.865C7.762 9.351 7.913 8.839 8.067 8.328L8.24 7.627C8.297 7.377 8.326 7.176 8.326 7.003C8.326 6.657 8.23 6.369 8.057 6.148C7.865 5.928 7.606 5.812 7.26 5.812C6.828 5.812 6.463 6.004 6.175 6.407C5.887 6.801 5.733 7.3 5.733 7.906C5.738 8.28 5.796 8.652 5.906 9.01L5.964 9.154C5.388 11.632 5.051 13.092 4.927 13.514C4.811 14.042 4.773 14.667 4.802 15.377C3.37777 14.7466 2.16646 13.7175 1.31435 12.4137C0.462236 11.11 0.00574622 9.58749 0 8.03C0 5.822 0.778 3.92 2.343 2.364C3.07461 1.60473 3.95399 1.00336 4.92691 0.596961C5.89984 0.190558 6.94569 -0.0122633 8 0.00100005V0.0100001Z" fill="black"/>
</svg>
