<svg xmlns="http://www.w3.org/2000/svg" fill="none" viewBox="0 0 47 45" height="45" width="47">
<path fill="white" d="M8.96392 38.9362C8.94895 38.9229 8.9335 38.9102 8.91745 38.898C8.4383 38.5033 7.95915 38.08 7.51833 37.6424C7.23827 37.3674 6.78739 37.3674 6.50733 37.6424C6.22703 37.921 6.22703 38.3721 6.50733 38.6507C6.98648 39.1263 7.46563 39.5686 8.00227 39.9967C8.29731 40.2603 8.75178 40.2365 9.01735 39.9436C9.2828 39.6508 9.25896 39.1998 8.96392 38.9362Z"></path>
<path fill="white" d="M1.44201 17.7859C1.06731 17.6559 0.657401 17.8522 0.526474 18.2241C0.507068 18.2793 0.494491 18.3367 0.48922 18.3949C0.345475 19.0464 0.235271 19.7075 0.153816 20.3686C0.102547 20.7553 0.373506 21.1111 0.762335 21.1676H0.853373C1.21717 21.1679 1.5237 20.8983 1.5673 20.5398C1.64397 19.9215 1.74938 19.2985 1.88354 18.6945C2.01447 18.3226 1.8167 17.9157 1.44201 17.7859Z"></path>
<path fill="white" d="M5.39091 35.1551C5.02197 34.6509 4.67219 34.1278 4.35116 33.5951C4.14824 33.2565 3.70718 33.1452 3.36603 33.3466C3.36543 33.3469 3.36471 33.3473 3.36411 33.3478C3.02296 33.5492 2.91084 33.987 3.11376 34.3256C3.11412 34.3262 3.11448 34.3269 3.11496 34.3275C3.45994 34.8982 3.83368 35.4594 4.23137 35.9969C4.47658 36.3067 4.92841 36.3605 5.24058 36.1171C5.53753 35.8855 5.60329 35.4651 5.39091 35.1551Z"></path>
<path fill="white" d="M2.88496 30.6559C2.65497 30.0804 2.44415 29.4859 2.26686 28.8866C2.1563 28.5083 1.75753 28.2905 1.37636 28.4002C1.36966 28.4021 1.36307 28.4041 1.35648 28.4063C0.97927 28.5207 0.765449 28.9155 0.877331 29.2909C1.06899 29.9282 1.2894 30.5655 1.53856 31.1933C1.68805 31.5624 2.11066 31.7412 2.48248 31.5928C2.8543 31.4444 3.03446 31.0249 2.88496 30.6559Z"></path>
<path fill="white" d="M3.3138 12.8945C2.95923 12.7173 2.52692 12.8589 2.34832 13.2108C2.04645 13.8053 1.76855 14.4188 1.52418 15.0419C1.38008 15.4069 1.55988 15.819 1.92667 15.9645C2.29573 16.1096 2.71343 15.9303 2.85957 15.564C2.86005 15.5628 2.86053 15.5615 2.86101 15.5603C3.091 14.9801 3.34016 14.4046 3.63244 13.8529C3.81104 13.5009 3.66837 13.0719 3.3138 12.8945Z"></path>
<path fill="white" d="M1.5915 25.6926C1.59138 25.692 1.59138 25.6913 1.59126 25.6907C1.5146 25.0724 1.46189 24.4446 1.43793 23.8264C1.42344 23.4323 1.08983 23.1247 0.692858 23.1391C0.295884 23.1535 -0.0140058 23.4846 0.000488408 23.8787C0.000488408 24.5445 0.0771522 25.2151 0.163399 25.8762C0.212512 26.222 0.506589 26.4815 0.858165 26.4897H0.968369C1.36223 26.4404 1.64121 26.0834 1.5915 25.6926Z"></path>
<path fill="white" d="M20.659 1.89389C20.6207 1.49985 20.2678 1.2114 19.8708 1.24945C19.2048 1.31603 18.534 1.41115 17.8727 1.53956C17.4758 1.5763 17.1841 1.92551 17.2211 2.31955C17.2581 2.71358 17.6099 3.00311 18.0069 2.96637L18.0021 2.94734H18.1411C18.7592 2.82844 19.3868 2.73808 20.0097 2.67625C20.4067 2.6382 20.6973 2.28792 20.659 1.89389Z"></path>
<path fill="white" d="M6.43546 8.57846C6.13647 8.31581 5.67948 8.34351 5.41487 8.64029C4.97405 9.13967 4.5524 9.66759 4.1595 10.2098C3.92663 10.5288 3.99839 10.9749 4.31989 11.206C4.44196 11.2938 4.58858 11.3412 4.73927 11.3417V11.3512C4.97058 11.352 5.18811 11.2423 5.32383 11.0563C5.69278 10.5522 6.08568 10.0576 6.49775 9.59149C6.76236 9.29472 6.73445 8.84123 6.43546 8.57846Z"></path>
<path fill="white" d="M25.3954 1.36835C24.7341 1.26847 24.0585 1.19713 23.3877 1.15908C22.9908 1.13542 22.6497 1.43564 22.6259 1.82968C22.6021 2.22372 22.9045 2.56222 23.3015 2.58589C23.934 2.63345 24.5617 2.70003 25.1798 2.79515H25.29C25.6869 2.82404 26.0323 2.5281 26.0614 2.13406C26.0905 1.74015 25.7923 1.39724 25.3954 1.36835Z"></path>
<path fill="white" d="M10.5172 5.17922C10.2924 4.87614 9.86904 4.7985 9.54992 5.00194C8.9989 5.37766 8.45746 5.78668 7.93998 6.20997C7.63429 6.46215 7.59248 6.91243 7.84655 7.21586C8.10062 7.5193 8.55425 7.56079 8.85995 7.30861C9.3391 6.9091 9.847 6.52862 10.3645 6.17667C10.6842 5.94315 10.7525 5.49657 10.5172 5.17922Z"></path>
<path fill="black" d="M12.9279 4.60243C12.9255 4.60243 12.9233 4.60196 12.9209 4.60196C12.9183 4.60196 12.9159 4.60243 12.9135 4.60243H12.9279Z"></path>
<path fill="black" d="M15.4623 2.93141C15.3572 2.55152 14.9617 2.32799 14.5788 2.43239C14.5452 2.44154 14.5122 2.45319 14.4802 2.4671C13.8526 2.69539 13.2249 2.94271 12.6211 3.24233C12.2612 3.40856 12.1052 3.83291 12.2727 4.19009C12.3901 4.44061 12.6429 4.60053 12.9209 4.60196C13.0246 4.59994 13.1266 4.57616 13.2201 4.53121C13.7855 4.26488 14.37 4.02232 14.9594 3.8083C15.3424 3.70391 15.5674 3.3113 15.4623 2.93141Z"></path>
<path fill="white" d="M24.152 44.1986C24.1268 43.8046 23.7847 43.5054 23.3877 43.5304C22.7601 43.578 22.1276 43.5922 21.4999 43.5732C21.1029 43.5627 20.7725 43.8735 20.762 44.2676C20.7515 44.6616 21.0646 44.9895 21.4616 45H22.0701C22.5492 45 23.0284 45 23.4788 44.9572C23.8758 44.9323 24.1771 44.5926 24.152 44.1986Z"></path>
<path fill="white" d="M42.9634 27.6715C42.5784 27.5743 42.1868 27.8054 42.0889 28.1875C41.9356 28.7915 41.7487 29.3908 41.5379 29.9758C41.413 30.3432 41.6065 30.7424 41.9739 30.8746C42.3475 31.0077 42.7591 30.8148 42.8932 30.444C42.8934 30.4433 42.8936 30.4426 42.8939 30.4418C43.1191 29.8141 43.3155 29.172 43.4832 28.5394C43.5812 28.1573 43.3484 27.7687 42.9634 27.6715Z"></path>
<path fill="white" d="M43.8809 19.503C43.7707 18.8467 43.6318 18.1856 43.4641 17.5435C43.3493 17.1664 42.9481 16.953 42.5682 17.067C42.208 17.175 41.9927 17.5405 42.0745 17.905C42.2327 18.5043 42.362 19.1225 42.4674 19.7361C42.5294 20.0722 42.8227 20.3175 43.167 20.3211H43.2868C43.6784 20.2579 43.9443 19.8918 43.8809 19.503Z"></path>
<path fill="white" d="M46.9356 11.3147C46.9018 11.2418 46.8556 11.1754 46.7989 11.1183L45.5292 9.80563C45.3474 9.62538 45.0801 9.55951 44.8344 9.63441L42.5441 10.324L39.8609 7.49896L45.8838 4.16976C46.2347 4.00936 46.3882 3.59689 46.2265 3.24864C46.1927 3.17575 46.1465 3.10928 46.0898 3.05221L44.3984 1.37334C44.2141 1.19749 43.9477 1.13542 43.7036 1.21164L36.0708 3.50403L33.5026 0.797863C32.8481 0.0466507 31.7825 -0.204348 30.8577 0.174825H30.8145C30.1173 0.45971 29.5635 1.00939 29.2765 1.70151C29.2041 1.88223 29.1527 2.07045 29.1231 2.26271L28.8309 2.16284C28.4525 2.04204 28.047 2.24857 27.9253 2.62417C27.8036 2.99978 28.0116 3.40226 28.3901 3.52306C28.759 3.64196 29.1279 3.77513 29.4969 3.91305C29.6079 4.08546 29.7381 4.24502 29.885 4.38865L32.5922 6.93787L31.816 9.48234C24.2241 4.10698 13.6796 5.85826 8.26413 13.3939C2.84867 20.9296 4.61301 31.3959 12.2049 36.7713C19.7968 42.1466 30.3413 40.3953 35.7567 32.8597C40.0753 26.8503 39.9246 18.7441 35.3856 12.897L36.6122 10.6998L39.4584 13.3631L38.7732 15.6127C38.6907 15.8599 38.7556 16.1322 38.9409 16.3166C38.9409 16.3166 40.3448 17.6959 40.3784 17.7434C40.7103 17.9344 41.1354 17.8221 41.3279 17.4927C41.3309 17.4875 41.3339 17.4823 41.3367 17.4771L43.2101 14.067L46.5929 12.236C46.9439 12.0754 47.0973 11.663 46.9356 11.3147ZM11.1599 12.2549C14.0485 9.38888 17.9667 7.78052 22.0509 7.78421C22.3704 7.78421 22.6897 7.79372 23.0092 7.81274C25.726 10.3001 24.9258 12.5688 23.105 14.6138C22.0306 15.7449 20.8778 16.8002 19.6552 17.7718C17.8871 19.2652 16.2388 20.6587 15.6159 22.0522C14.8781 23.7073 15.4195 25.2055 18.3998 26.5134C19.89 27.1697 20.6997 27.6786 21.016 28.0638C21.0206 28.0694 21.0252 28.0734 21.0298 28.0768C21.02 28.0798 21.0101 28.083 20.9968 28.0876C20.2752 28.3604 19.5071 28.4912 18.7352 28.4729C15.1309 28.6247 12.5614 26.3434 10.5654 24.5711L10.5513 24.5587L10.544 24.5522C9.10984 23.2852 7.91871 22.233 6.67982 22.2235C6.8849 18.4663 8.48034 14.9164 11.1599 12.2549ZM37.513 23.0891H37.5083C37.5079 22.4515 37.4679 21.8146 37.3885 21.1819C35.4096 22.2615 35.3185 23.0034 35.1988 23.9975C35.0071 25.5717 34.7579 27.6168 30.3354 31.2789C29.1938 32.1441 28.2197 33.2076 27.4605 34.4179C26.9006 35.4002 26.6929 36.542 26.8712 37.6567C33.2178 35.5945 37.5109 29.7177 37.513 23.0891ZM36.617 17.943C36.8312 18.5418 37.0072 19.1535 37.1441 19.7741C34.1303 21.296 33.9961 22.3804 33.814 23.8595L33.8137 23.8619C33.6509 25.1933 33.4379 26.9339 29.4442 30.2421C28.1643 31.2141 27.076 32.412 26.2339 33.7758C25.4997 35.064 25.2453 36.5674 25.5152 38.0229C17.2032 39.9089 8.92487 34.7496 7.02481 26.4994C6.80751 25.5558 6.68078 24.5939 6.64628 23.6265C7.37905 23.6265 8.32016 24.4581 9.4696 25.4737L9.60742 25.5955C11.8019 27.5407 14.6097 30.0233 18.7927 29.8759C19.7783 29.8928 20.7569 29.7082 21.6676 29.3337C22.0515 29.1652 22.3421 28.8386 22.463 28.4396C22.565 27.9945 22.4356 27.5283 22.118 27.1982C21.6676 26.6513 20.6805 26.0045 18.9844 25.253C16.9576 24.3637 16.5167 23.4981 16.9144 22.6135C17.3491 21.6038 18.6592 20.469 20.1221 19.2017C20.2718 19.0721 20.4231 18.9411 20.5751 18.8086C21.8521 17.7843 23.0545 16.6719 24.1735 15.4794C26.1764 13.2156 27.2066 10.7472 25.1702 8.04579C27.4333 8.50498 29.5626 9.46593 31.3991 10.8566L30.2971 14.4664C30.2157 14.7137 30.2804 14.9854 30.4648 15.1703C30.4648 15.1703 32.252 16.93 32.3095 16.9633C32.6414 17.1543 33.0665 17.042 33.259 16.7125C33.262 16.7074 33.2649 16.7022 33.2678 16.697L34.6621 14.1953C35.4852 15.3489 36.143 16.6102 36.617 17.943ZM42.4243 12.935L43.0424 12.6306L45.1986 11.4463L44.8392 11.0896L42.5345 11.7793C42.2819 11.8564 42.007 11.7845 41.8254 11.5938C41.8254 11.5938 38.1599 7.72238 38.1311 7.67006L38.1224 7.65449C37.9385 7.32026 38.0626 6.90125 38.3995 6.71886L44.4847 3.39916L43.742 2.66198L36.0756 4.95914C35.822 5.03511 35.547 4.96128 35.3665 4.7689L32.4916 1.75358C32.2175 1.43077 31.7672 1.31615 31.3704 1.46822H31.3464C30.9973 1.61792 30.7182 1.89317 30.5654 2.2387C30.3948 2.63749 30.5055 3.10013 30.8385 3.38014L33.8476 6.19094C34.0668 6.36822 34.1559 6.65977 34.0728 6.92812L31.7537 14.514L32.4964 15.2511C32.4964 15.2511 35.8983 9.16821 35.9462 9.11589C35.9525 9.10911 35.9587 9.10257 35.9652 9.09603C36.2341 8.82435 36.6739 8.82042 36.9476 9.08735L40.7281 12.6211C40.9454 12.7976 41.0343 13.0866 40.9533 13.3535L40.2586 15.6316L40.6083 16.0121L41.8014 13.8719L42.1081 13.2536C42.1746 13.1152 42.286 13.0031 42.4243 12.935Z" clip-rule="evenodd" fill-rule="evenodd"></path>
<path fill="white" d="M41.1912 32.6853C41.1808 32.6792 41.1701 32.6732 41.1594 32.6678C40.8159 32.4895 40.392 32.6137 40.2011 32.9484C39.8992 33.4953 39.5686 34.0328 39.214 34.5464C38.9851 34.8695 39.0634 35.3156 39.3889 35.5428C39.7144 35.77 40.1638 35.6922 40.3927 35.3692C40.7665 34.8175 41.121 34.242 41.4469 33.6618C41.648 33.322 41.5335 32.8848 41.1912 32.6853Z"></path>
<path fill="white" d="M43.4641 22.271C43.0672 22.2657 42.741 22.5806 42.7355 22.9746C42.7354 22.9842 42.7354 22.9938 42.7358 23.0034V23.0843C42.7358 23.7073 42.707 24.3351 42.6495 24.9582C42.6136 25.3505 42.9048 25.6976 43.3001 25.7333C43.3004 25.7333 43.3008 25.7334 43.3012 25.7334H43.3682C43.7474 25.737 44.064 25.4476 44.0918 25.0723C44.154 24.4112 44.1828 23.7406 44.1828 23.0748V22.9797C44.1802 22.5875 43.8591 22.271 43.4641 22.271Z"></path>
<path fill="white" d="M18.2273 43.2165C17.6044 43.1119 16.9863 42.9787 16.3874 42.798C16.0129 42.6673 15.6026 42.8626 15.4709 43.2343C15.3391 43.606 15.536 44.0132 15.9105 44.144C15.9379 44.1537 15.9661 44.1615 15.9945 44.1678C16.6365 44.3485 17.2978 44.5055 17.959 44.6434H18.0931C18.4901 44.6802 18.8419 44.3906 18.8789 43.9966C18.916 43.6026 18.6243 43.2534 18.2273 43.2165Z"></path>
<path fill="white" d="M29.348 42.9997C29.218 42.6495 28.8379 42.4578 28.4763 42.5603V42.5793C27.8822 42.7743 27.2688 42.9408 26.6603 43.0549C26.2727 43.1416 26.0292 43.5239 26.1165 43.9086C26.2038 44.2934 26.5889 44.5351 26.9766 44.4484C27.6282 44.301 28.2846 44.1203 28.9219 43.9157C29.2944 43.7795 29.4851 43.3694 29.348 42.9997Z"></path>
<path fill="white" d="M13.2969 41.6613C12.7267 41.3807 12.1661 41.0763 11.6246 40.7719C11.2819 40.5723 10.8411 40.6862 10.64 41.0264C10.4389 41.3665 10.5536 41.8041 10.8963 42.0037C11.4761 42.3414 12.075 42.6553 12.6836 42.9549C13.0434 43.123 13.4725 42.9697 13.6419 42.6125C13.8112 42.2553 13.6568 41.8294 13.2969 41.6613Z"></path>
<path fill="white" d="M38.1377 37.0722C37.8498 36.8112 37.4045 36.8257 37.1345 37.1051H37.1393C36.7081 37.5807 36.2529 37.9993 35.7881 38.413C35.4918 38.6757 35.466 39.1272 35.7306 39.4213C35.9952 39.7155 36.4501 39.741 36.7464 39.4784C37.2256 39.0361 37.7335 38.5652 38.1839 38.0801C38.4516 37.7891 38.4309 37.3378 38.1377 37.0722Z"></path>
<path fill="white" d="M34.1723 40.6307C33.9687 40.2925 33.5274 40.1823 33.1866 40.3844C33.1751 40.3912 33.1638 40.3983 33.1528 40.4058V40.3868C32.6257 40.7197 32.0747 41.0336 31.5189 41.338C31.1656 41.5179 31.0262 41.9481 31.2074 42.2987C31.3887 42.6493 31.8221 42.7877 32.1753 42.6078C32.7695 42.3035 33.3588 41.9658 33.9242 41.6091C34.2649 41.4068 34.3761 40.9688 34.1723 40.6307Z"></path>
</svg>
