<svg width="17" height="17" viewBox="0 0 17 17" fill="none" xmlns="http://www.w3.org/2000/svg">
<path fill-rule="evenodd" clip-rule="evenodd" d="M15.6874 13.6961C15.3367 13.8893 14.9636 14.0387 14.5764 14.1411C14.5024 14.3711 14.3404 14.7051 13.9804 14.9541C13.6194 15.2061 13.2254 15.2481 13.0804 15.2621C12.9404 15.2771 12.7674 15.2831 12.6374 15.2881L12.5454 15.2921C12.2284 15.3061 11.9214 15.3341 11.5874 15.4461L11.5854 15.4471C11.4694 15.4912 11.3585 15.5475 11.2544 15.6151L11.1164 15.7001C10.9764 15.7871 10.7864 15.9051 10.6194 15.9981C9.91292 16.4013 9.11182 16.609 8.29843 16.6001C7.4869 16.6094 6.68763 16.4016 5.98343 15.9981C5.81943 15.9071 5.62843 15.7881 5.48843 15.7011L5.34843 15.6151C5.24208 15.5461 5.12879 15.4885 5.01043 15.4431C4.69938 15.3464 4.37612 15.2946 4.05043 15.2891C4.02044 15.288 3.99044 15.287 3.96043 15.2861C3.83043 15.2801 3.65643 15.2731 3.51543 15.2591C3.36543 15.2431 2.97443 15.1991 2.61543 14.9491C2.33388 14.7523 2.12538 14.4679 2.02243 14.1401C1.63464 14.0383 1.26108 13.8885 0.910431 13.6941C0.664787 13.5634 0.450502 13.3809 0.282431 13.1591C0.145381 12.9742 0.0547699 12.759 0.0182247 12.5317C-0.0183205 12.3044 0.000269778 12.0717 0.0724308 11.8531C0.171659 11.5637 0.356487 11.3112 0.602431 11.1291C0.739431 11.0251 0.872431 10.9591 0.925431 10.9331C2.15543 10.3291 2.69543 9.55312 2.92143 9.10012L2.74143 8.98212C2.57443 8.87212 2.39943 8.75912 2.30343 8.69112C2.05143 8.51312 1.73143 8.24212 1.52443 7.84112C1.40699 7.61558 1.33853 7.36776 1.32354 7.11392C1.30854 6.86007 1.34736 6.60592 1.43743 6.36812L1.43943 6.36312C1.78343 5.44112 2.63943 5.22312 3.14343 5.22312H3.21343C3.21743 5.00112 3.22743 4.77312 3.24643 4.54512C3.29103 3.4713 3.7103 2.44701 4.43143 1.65012L4.43843 1.64312C4.93312 1.10507 5.53781 0.679776 6.21143 0.396121C6.87783 0.115536 7.59667 -0.0188205 8.31943 0.00212066C10.5914 0.0101207 11.8414 1.27512 12.1744 1.65712C12.89 2.45237 13.3059 3.47225 13.3504 4.54112C13.3694 4.76812 13.3784 4.99712 13.3824 5.21912H13.4704C13.9914 5.22412 14.8164 5.46112 15.1544 6.35212L15.1594 6.36412C15.3394 6.85112 15.3134 7.37412 15.0694 7.84112C14.8604 8.24212 14.5384 8.51312 14.2834 8.69112C14.1505 8.78179 14.0165 8.87079 13.8814 8.95812L13.6724 9.09612C13.8964 9.54612 14.4324 10.3221 15.6664 10.9231L15.6764 10.9271L15.6844 10.9311C15.7404 10.9601 15.8724 11.0281 16.0094 11.1341C16.1294 11.2271 16.3974 11.4571 16.5294 11.8581C16.6894 12.3511 16.5574 12.8211 16.3224 13.1501C16.1555 13.3741 15.9415 13.5588 15.6954 13.6911L15.6874 13.6961ZM12.3724 8.42812C12.4604 8.34512 12.7024 8.18012 12.9464 8.01812L13.2014 7.84912L13.2854 7.79412C13.358 7.74651 13.4304 7.69851 13.5024 7.65012L13.5204 7.63712L13.5384 7.62512C13.8984 7.37512 14.0524 7.12112 13.9394 6.81412C13.8584 6.60012 13.6594 6.51912 13.4534 6.51912C13.3882 6.51743 13.323 6.52415 13.2594 6.53912C13.1226 6.57022 12.988 6.61031 12.8564 6.65912C12.7965 6.68098 12.7368 6.70365 12.6774 6.72712L12.6644 6.73212L12.6064 6.75512C12.5144 6.79112 12.4304 6.82412 12.3584 6.84812C12.3254 6.85912 12.2944 6.86812 12.2674 6.87512C12.2384 6.88712 12.2104 6.88712 12.1854 6.88712C12.0684 6.88712 12.0244 6.83412 12.0324 6.69112L12.0354 6.64312L12.0524 6.37912C12.0677 6.11768 12.0777 5.85596 12.0824 5.59412V5.56412C12.0877 5.24949 12.0777 4.93478 12.0524 4.62112C12.0263 3.84204 11.7252 3.09736 11.2024 2.51912C11.0034 2.28912 10.0724 1.30212 8.29843 1.30212C7.75586 1.28388 7.21579 1.3835 6.71543 1.59412C6.21543 1.80412 5.76443 2.12112 5.39543 2.52412C4.87251 3.10196 4.57103 3.84626 4.54443 4.62512C4.51118 5.02354 4.50249 5.42363 4.51843 5.82312L4.52843 6.06912C4.53843 6.29312 4.55043 6.49112 4.56143 6.64512C4.56143 6.66412 4.56343 6.68212 4.56443 6.69912C4.57243 6.83412 4.53243 6.89112 4.41043 6.89112L4.33043 6.88312C4.3011 6.87598 4.27208 6.86764 4.24343 6.85812C4.15791 6.82843 4.07321 6.79642 3.98943 6.76212L3.93543 6.74012C3.91133 6.7307 3.88733 6.72104 3.86343 6.71112C3.82258 6.69539 3.78158 6.68005 3.74043 6.66512L3.73243 6.66212C3.58686 6.60829 3.43743 6.5655 3.28543 6.53412C3.23837 6.52755 3.19094 6.52388 3.14343 6.52312C2.93643 6.52312 2.73843 6.60012 2.65743 6.81812C2.54343 7.12512 2.69743 7.37912 3.05443 7.62912C3.0837 7.65003 3.11337 7.67037 3.14343 7.69012C3.23423 7.75126 3.32556 7.8116 3.41743 7.87112L3.65543 8.02712C3.89843 8.18812 4.13743 8.35012 4.22443 8.43212C4.39943 8.59712 4.38443 8.72512 4.36443 8.88412L4.36243 8.90412C4.34843 9.01912 4.05843 10.3961 2.43643 11.5451C2.27174 11.6622 2.10154 11.7713 1.92643 11.8721C1.78639 11.9529 1.64364 12.029 1.49843 12.1001C1.35743 12.1701 1.11043 12.3171 1.54343 12.5591C1.62743 12.6051 1.70743 12.6451 1.78343 12.6801C2.03043 12.7931 2.24443 12.8541 2.43443 12.9051L2.46943 12.9151C2.52943 12.9301 2.58443 12.9451 2.63943 12.9611C2.77943 13.0031 2.90643 13.0491 3.02143 13.1241C3.18143 13.2281 3.20343 13.3981 3.22443 13.5561C3.24243 13.6891 3.25943 13.8141 3.35743 13.8821C3.47443 13.9641 3.69043 13.9731 3.98043 13.9851C4.35543 14.0001 4.85343 14.0211 5.42343 14.2101C5.71043 14.3071 5.95943 14.4631 6.22343 14.6261C6.73743 14.9481 7.30343 15.3001 8.29843 15.3001C9.29843 15.3001 9.87043 14.9441 10.3854 14.6231C10.6464 14.4611 10.8934 14.3081 11.1734 14.2141C11.7454 14.0221 12.2464 14.0021 12.6214 13.9881C12.9104 13.9771 13.1244 13.9681 13.2384 13.8861C13.3394 13.8181 13.3564 13.6931 13.3734 13.5581C13.3944 13.4011 13.4174 13.2301 13.5794 13.1241C13.6954 13.0491 13.8234 13.0031 13.9674 12.9611C14.0339 12.9416 14.1005 12.9229 14.1674 12.9051C14.3872 12.8491 14.602 12.7748 14.8094 12.6831C14.8894 12.6471 14.9714 12.6061 15.0574 12.5591C15.4864 12.3171 15.2434 12.1651 15.0974 12.0911C14.954 12.0215 14.8129 11.9471 14.6744 11.8681L14.6644 11.8631C14.493 11.7645 14.3261 11.658 14.1644 11.5441C12.5354 10.3991 12.2484 9.01812 12.2344 8.89512V8.89312C12.2104 8.73012 12.1904 8.60012 12.3724 8.42812Z" fill="black"/>
</svg>
