<svg width="15" height="17" viewBox="0 0 15 17" fill="none" xmlns="http://www.w3.org/2000/svg">
<path d="M7.51099 0.705002H10.251C10.251 0.705002 10.094 4.215 14.046 4.473V7.184C14.046 7.184 11.932 7.313 10.25 6.026L10.278 11.632C10.2782 12.6357 9.98063 13.617 9.42296 14.4515C8.8653 15.2861 8.0726 15.9364 7.14518 16.3203C6.21777 16.7042 5.19731 16.8043 4.21296 16.6081C3.22862 16.4118 2.32461 15.9279 1.61536 15.2177C0.90611 14.5074 0.423486 13.6028 0.228566 12.6181C0.0336469 11.6335 0.135193 10.6132 0.520354 9.68633C0.905515 8.75944 1.55698 7.96764 2.3923 7.41113C3.22763 6.85462 4.20926 6.55842 5.21299 6.56H5.92099V9.345C5.45913 9.20193 4.9639 9.20819 4.5058 9.36288C4.0477 9.51757 3.65006 9.81282 3.36949 10.2066C3.08891 10.6004 2.93969 11.0726 2.94307 11.5561C2.94645 12.0396 3.10225 12.5098 3.38829 12.8996C3.67434 13.2894 4.07606 13.5791 4.53628 13.7274C4.9965 13.8756 5.49176 13.875 5.95159 13.7255C6.41141 13.576 6.81235 13.2852 7.09736 12.8946C7.38236 12.504 7.53691 12.0335 7.53899 11.55L7.51099 0.705002Z" fill="black"/>
</svg>
