<svg xmlns:xlink="http://www.w3.org/1999/xlink" xmlns="http://www.w3.org/2000/svg" version="1.1" viewBox="0 0 45 45" height="45px" width="45px">
    <title>diamond (10)</title>
    <g fill-rule="evenodd" fill="none" stroke-width="1" stroke="none" id="main-page">
        <g fill-rule="nonzero" fill="#FFFFFF" transform="translate(-752, -5057)" id="Zinvo---Juana-+-Walsheim">
            <g transform="translate(752, 5057)" id="diamond-(10)">
                <path id="Shape" d="M44.4643618,18.0355783 L38.9988509,10.7483268 C38.578285,10.1874918 37.9025669,9.84383644 37.1898462,9.84383644 L7.8098242,9.84383644 C7.1009707,9.84383644 6.42252802,10.1858219 6.00073162,10.7483268 L0.535396427,18.0354904 C-0.205449965,19.0232139 -0.192881329,20.4387049 0.66969626,21.4164088 L20.8042119,44.2352126 C21.7028254,45.2535224 23.2943839,45.2563349 24.1954585,44.2352126 L44.3299741,21.4164088 C45.2007257,20.4294763 45.1984405,19.014249 44.4643618,18.0355783 Z M43.4093874,18.9845417 L32.3656872,18.9845417 L37.962246,11.7098587 C43.7219334,19.3894574 43.3526088,18.89041 43.4093874,18.9845417 Z M22.7430339,43.4156254 C22.6684131,43.6531079 22.331433,43.6531958 22.2567244,43.4157133 L15.0201783,20.3908041 L29.9794921,20.3908041 L22.7430339,43.4156254 Z M24.9195174,11.2500988 L29.6792511,18.9845417 L15.3205072,18.9845417 L20.0802409,11.2500988 L24.9195174,11.2500988 Z M26.5707549,11.2500988 L36.5416385,11.2500988 L31.0020341,18.4507773 L26.5707549,11.2500988 Z M13.9977241,18.4507773 L8.45811972,11.2500988 L18.4290034,11.2500988 L13.9977241,18.4507773 Z M7.03751227,11.7098587 L12.6340711,18.9845417 L1.59037083,18.9845417 C1.64714943,18.89041 1.27984641,19.3866448 7.03751227,11.7098587 Z M1.64829203,20.3908041 L13.5460443,20.3908041 L20.1329764,41.349035 C0.880989975,19.5302594 1.70638901,20.4707852 1.64829203,20.3908041 Z M24.8666061,41.349035 L31.4535382,20.3908041 L43.3512904,20.3908041 C43.2936329,20.4703458 44.4778973,19.1232343 24.8666061,41.349035 L24.8666061,41.349035 Z"></path>
                <path id="Path" d="M22.4998352,6.32818057 C22.8881445,6.32818057 23.2029757,6.01335358 23.2029757,5.62504939 L23.2029757,0.703131174 C23.2029757,0.314826983 22.8881445,0 22.4998352,0 C22.1115259,0 21.7966947,0.314826983 21.7966947,0.703131174 L21.7966947,5.62504939 C21.7966947,6.01335358 22.1115259,6.32818057 22.4998352,6.32818057 L22.4998352,6.32818057 Z"></path>
                <path id="Path" d="M16.3256465,7.47050505 C16.5669995,7.77223622 17.0092748,7.82409214 17.3139104,7.5803693 C17.6171398,7.33778904 17.6663596,6.89525586 17.4237761,6.59211843 L14.6112142,3.07646256 C14.3686307,2.77314935 13.9260917,2.72419384 13.6229503,2.96659832 C13.3197209,3.20917857 13.2705011,3.65171175 13.5130846,3.95484918 L16.3256465,7.47050505 Z"></path>
                <path id="Path" d="M27.6857599,7.5803693 C27.990835,7.82444371 28.4330225,7.77188465 28.6740239,7.47050505 L31.4865858,3.95484918 C31.7291693,3.65171175 31.6799494,3.20917857 31.3767201,2.96659832 C31.0736666,2.72419384 30.6311275,2.77314935 30.3884562,3.07646256 L27.5758942,6.59211843 C27.3333108,6.89525586 27.3825306,7.33778904 27.6857599,7.5803693 Z"></path>
            </g>
        </g>
    </g>
</svg>