<svg xmlns="http://www.w3.org/2000/svg" fill="none" viewBox="0 0 36 44" height="44" width="36">
<path fill="white" d="M35.8266 11.0486L35.8265 11.0433C35.7692 8.97874 35.7198 7.19528 35.7198 6.05697C35.7198 5.73097 35.4672 5.46 35.1403 5.43527C29.1364 5.00005 23.3194 3.16862 18.1578 0.0885543C17.9451 -0.0380865 17.6773 -0.0282065 17.4746 0.113761C13.9235 2.60083 8.30889 4.34444 0.787021 5.29552C0.474585 5.33502 0.240092 5.59882 0.239053 5.91196C0.23538 7.01197 0.196239 8.75433 0.150915 10.7719C-0.030666 18.8504 -0.148028 26.2559 0.404688 28.1134C1.33176 31.2289 3.26645 34.1466 6.155 36.7855C9.00798 39.3918 12.8753 41.8006 17.6494 43.9448C17.8134 44.0184 18.0013 44.0184 18.1653 43.9448C23.2762 41.6535 27.3326 39.1018 30.2217 36.3604C33.1544 33.5779 34.9735 30.5189 35.6285 27.2681C36.1981 24.4383 35.9834 16.6992 35.8266 11.0486ZM31.4754 9.83714C31.498 10.7155 31.5253 11.61 31.5522 12.4749C31.5929 13.7957 31.635 15.1615 31.6606 16.5018C31.6964 18.4443 31.7242 20.5308 31.6785 22.6269L31.6722 22.931C31.6506 24.0231 31.6233 25.3824 31.4124 26.429C30.4703 31.1065 26.0205 35.4078 18.1867 39.2135C18.0125 39.2981 17.8087 39.2979 17.6347 39.2128C10.3349 35.6453 5.93131 31.5228 4.54612 26.9611C4.54068 26.9429 4.53603 26.9245 4.53214 26.9059C4.35225 26.0328 4.33608 24.6795 4.32426 23.6903L4.32345 23.6238C4.3216 23.4729 4.31987 23.3306 4.31751 23.2C4.27935 21.0875 4.29735 19.0017 4.33614 16.5199C4.35788 15.1253 4.39276 13.7063 4.42649 12.3339L4.42662 12.3288C4.45027 11.416 4.47159 10.5034 4.49058 9.59104C4.49682 9.29284 4.7146 9.0408 5.01015 8.98974C10.196 8.09157 14.3258 6.79455 17.6354 5.02457C17.8182 4.92684 18.0378 4.92541 18.2219 5.02074C22.2132 7.08836 26.5097 8.51188 30.9505 9.23797C31.2474 9.28664 31.4677 9.53808 31.4754 9.83714ZM30.4186 22.9059L30.4249 22.5997C30.4701 20.5258 30.4427 18.4544 30.4062 16.5249C30.3814 15.196 30.3396 13.838 30.2991 12.5244L30.2988 12.5131C30.2772 11.814 30.255 11.0958 30.2353 10.3814C25.9531 9.62944 21.8077 8.2461 17.9363 6.27715C14.6694 7.97435 10.6693 9.2369 5.73334 10.128C5.71638 10.8718 5.6987 11.6155 5.68031 12.3592C5.64653 13.7304 5.61169 15.1483 5.59001 16.5389C5.5514 19.0084 5.53348 21.0823 5.57138 23.1772C5.57392 23.3202 5.57582 23.4771 5.57784 23.6437L5.57818 23.6724C5.5892 24.6005 5.60434 25.8674 5.75511 26.6281C7.02841 30.7787 11.1178 34.5894 17.9121 37.9577C25.2044 34.3674 29.3317 30.4071 30.1827 26.1837C30.3713 25.2475 30.3975 23.952 30.4185 22.9101L30.4186 22.9059ZM17.9079 42.6921C27.6451 38.2786 33.1929 33.0078 34.3988 27.0235C34.9406 24.3317 34.7281 16.6742 34.5729 11.083C34.5241 9.32433 34.4809 7.76876 34.4689 6.63111C28.6082 6.12236 22.9348 4.32272 17.8606 1.36277C14.2217 3.78545 8.71881 5.4994 1.48916 6.46196C1.47743 7.56137 1.44334 9.0794 1.40476 10.7971L1.40468 10.8003C1.26915 16.8273 1.06436 25.9352 1.60723 27.7597C3.32602 33.535 8.80974 38.5579 17.9079 42.6921ZM21.3025 15.9368L17.6015 19.6165L16.444 18.4656C15.5402 17.5669 14.0747 17.5668 13.1708 18.4655C12.2669 19.3643 12.2669 20.8214 13.1707 21.7201C13.6424 22.1892 14.1087 22.7116 14.5597 23.2169L14.5656 23.2235C15.0145 23.7267 15.4387 24.202 15.868 24.6288C16.773 25.5249 18.2363 25.5249 19.1412 24.6288C20.0481 23.7272 20.9635 22.8074 21.8491 21.9176L21.8599 21.9067C22.7488 21.0135 23.6656 20.0923 24.5738 19.1893C25.4707 18.29 25.4676 16.839 24.5669 15.9435C23.6662 15.048 22.2069 15.045 21.3025 15.9368ZM20.9685 21.0296C21.8573 20.1364 22.7765 19.2129 23.687 18.3077C24.1007 17.8964 24.1005 17.2297 23.6869 16.8184C23.2733 16.4071 22.6027 16.4071 22.1891 16.8184L18.0447 20.939C17.9271 21.056 17.7676 21.1217 17.6012 21.1217C17.4349 21.1217 17.2754 21.056 17.1578 20.939L15.557 19.3473C15.1428 18.9355 14.4714 18.9356 14.0573 19.3473C13.6431 19.7591 13.6432 20.4267 14.0573 20.8385C14.5564 21.3347 15.0363 21.8724 15.5003 22.3924C15.9374 22.8826 16.3507 23.3456 16.7544 23.7471C17.1689 24.1582 17.8397 24.1582 18.2542 23.7471C19.1626 22.8441 20.0797 21.9228 20.9685 21.0296Z" clip-rule="evenodd" fill-rule="evenodd"></path>
</svg>
